<svg width="10" height="10" viewBox="0 0 9 9" fill="none" xmlns="http://www.w3.org/2000/svg">
<path d="M4.49997 6.81233C4.64248 6.81233 4.78959 6.75441 4.89071 6.65235C4.99737 6.54386 5.05253 6.40595 5.05713 6.25517C5.05897 6.20276 5.04885 6.14851 5.03414 6.09703C5.00932 6.01244 4.96059 5.92694 4.89807 5.86441C4.84474 5.81109 4.7859 5.77431 4.71786 5.74581C4.64706 5.71547 4.58087 5.698 4.50088 5.698C4.45215 5.698 4.39515 5.70719 4.34826 5.71914C4.26459 5.74121 4.17266 5.79546 4.11106 5.85706C4.009 5.95911 3.93912 6.10806 3.94464 6.25424C3.94924 6.39859 3.99981 6.53558 4.10094 6.6404C4.20851 6.75533 4.34643 6.80406 4.49996 6.81234C4.61397 6.81878 4.74636 6.75626 4.82543 6.67811C4.90542 6.59812 4.96518 6.46757 4.95966 6.35264C4.95415 6.23403 4.91553 6.11083 4.82543 6.02717C4.73257 5.94259 4.62684 5.89937 4.49996 5.89294C4.49628 5.89294 4.49261 5.89294 4.48893 5.89202C4.52938 5.89753 4.57076 5.90305 4.61121 5.90857C4.60018 5.90673 4.5919 5.90489 4.58179 5.90029C4.61857 5.91592 4.65534 5.93155 4.6912 5.94626C4.68476 5.94351 4.67925 5.93983 4.67373 5.93615C4.70499 5.96006 4.73533 5.98396 4.76659 6.00786C4.75832 6.00143 4.75188 5.99499 4.74545 5.98672C4.76935 6.01798 4.79326 6.04832 4.81716 6.07958C4.81348 6.07406 4.8098 6.06854 4.80705 6.06211C4.82268 6.09888 4.83831 6.13566 4.85302 6.17152C4.84934 6.16141 4.84658 6.15221 4.84474 6.1421C4.85026 6.18255 4.85577 6.22393 4.86129 6.26438C4.86037 6.25059 4.86037 6.25702 4.86129 6.24323C4.85577 6.28369 4.85026 6.32506 4.84474 6.36551C4.84658 6.35448 4.84842 6.34621 4.85302 6.33609C4.83739 6.37287 4.82176 6.40965 4.80705 6.4455C4.8098 6.43907 4.81348 6.43355 4.81716 6.42803C4.79325 6.45929 4.76935 6.48964 4.74545 6.52089C4.75188 6.51262 4.75832 6.50618 4.76659 6.49975C4.73533 6.52365 4.70499 6.54756 4.67373 6.57146C4.67925 6.56778 4.68476 6.56411 4.6912 6.56135C4.65442 6.57698 4.61765 6.59261 4.58179 6.60732C4.5919 6.60364 4.6011 6.60088 4.61121 6.59904C4.57076 6.60456 4.52938 6.61008 4.48893 6.61559C4.50272 6.61467 4.49629 6.61467 4.51008 6.61559C4.46962 6.61008 4.42825 6.60456 4.38779 6.59904C4.39883 6.60088 4.4071 6.60272 4.41722 6.60732C4.38044 6.59169 4.34366 6.57606 4.30781 6.56135C4.31424 6.56411 4.31976 6.56778 4.32528 6.57146C4.29401 6.54756 4.26367 6.52365 4.23241 6.49975C4.24069 6.50618 4.24713 6.51262 4.25356 6.52089C4.22966 6.48963 4.20575 6.45929 4.18185 6.42803C4.18552 6.43355 4.1892 6.43907 4.19196 6.4455C4.17633 6.40873 4.1607 6.37195 4.14599 6.33609C4.14967 6.34621 4.15243 6.3554 4.15426 6.36551C4.14875 6.32506 4.14323 6.28369 4.13771 6.24323C4.13863 6.25702 4.13863 6.25059 4.13771 6.26438C4.14323 6.22393 4.14875 6.18255 4.15426 6.1421C4.15243 6.15313 4.15059 6.1614 4.14599 6.17152C4.16162 6.13474 4.17725 6.09797 4.19196 6.06211C4.1892 6.06854 4.18552 6.07406 4.18185 6.07958C4.20575 6.04832 4.22966 6.01798 4.25356 5.98672C4.24713 5.99499 4.24069 6.00143 4.23241 6.00786C4.26368 5.98396 4.29402 5.96005 4.32528 5.93615C4.31976 5.93983 4.31424 5.94351 4.30781 5.94626C4.34458 5.93063 4.38136 5.915 4.41722 5.90029C4.4071 5.90397 4.39791 5.90673 4.38779 5.90857C4.42825 5.90305 4.46962 5.89753 4.51008 5.89202C4.5064 5.89202 4.50272 5.89294 4.49904 5.89294C4.38136 5.89294 4.25723 5.94442 4.17358 6.02717C4.09359 6.10716 4.03383 6.23771 4.03934 6.35264C4.04486 6.47124 4.08347 6.59445 4.17358 6.67811C4.2646 6.75993 4.37584 6.81234 4.49997 6.81234L4.49997 6.81233Z" fill="#D11A2A"/>
<path d="M4.04004 2.47544V3.29096V4.59194V4.89166C4.04004 5.00935 4.09153 5.13347 4.17427 5.21713C4.25426 5.29712 4.38481 5.35688 4.49974 5.35137C4.61835 5.34585 4.74155 5.30723 4.82521 5.21713C4.90796 5.12703 4.95944 5.0167 4.95944 4.89166V4.07614V2.77516V2.47544C4.95944 2.35775 4.90796 2.23363 4.82521 2.14997C4.74522 2.06998 4.61467 2.01022 4.49974 2.01573C4.38114 2.02125 4.25793 2.05987 4.17427 2.14997C4.09245 2.24007 4.04004 2.3504 4.04004 2.47544Z" fill="#D11A2A"/>
<path d="M8.08106 4.50115C8.08106 4.68504 8.06819 4.86799 8.04429 5.05003C8.0498 5.00958 8.05532 4.9682 8.06084 4.92775C8.01303 5.27622 7.92017 5.61823 7.78409 5.94278C7.79972 5.90601 7.81535 5.86923 7.83006 5.83337C7.69491 6.15425 7.51838 6.45674 7.30599 6.73256C7.3299 6.7013 7.3538 6.67095 7.37771 6.6397C7.16349 6.91644 6.91524 7.1656 6.63849 7.37891C6.66975 7.355 6.70009 7.3311 6.73135 7.3072C6.45553 7.51958 6.15305 7.69519 5.83217 7.83126C5.86895 7.81563 5.90572 7.8 5.94158 7.78529C5.61702 7.92137 5.27501 8.01423 4.92655 8.06204C4.967 8.05652 5.00838 8.05101 5.04883 8.04549C4.68474 8.09422 4.31422 8.09422 3.95012 8.04549C3.99057 8.05101 4.03195 8.05652 4.0724 8.06204C3.72393 8.01423 3.38192 7.92137 3.05737 7.78529C3.09414 7.80092 3.13092 7.81655 3.16678 7.83126C2.8459 7.69611 2.54341 7.51958 2.26759 7.3072C2.29885 7.3311 2.3292 7.35501 2.36045 7.37891C2.08371 7.16469 1.83455 6.91644 1.62124 6.6397C1.64515 6.67096 1.66905 6.7013 1.69295 6.73256C1.48057 6.45674 1.30496 6.15425 1.16888 5.83337C1.18452 5.87015 1.20015 5.90693 1.21486 5.94278C1.07878 5.61823 0.985925 5.27622 0.938111 4.92775C0.943627 4.9682 0.949144 5.00958 0.954661 5.05003C0.905932 4.68595 0.905932 4.31542 0.954661 3.95132C0.949144 3.99178 0.943627 4.03315 0.938111 4.0736C0.985921 3.72514 1.07878 3.38313 1.21486 3.05857C1.19923 3.09535 1.1836 3.13212 1.16888 3.16798C1.30404 2.8471 1.48057 2.54462 1.69295 2.2688C1.66905 2.30006 1.64514 2.3304 1.62124 2.36166C1.83546 2.08491 2.08371 1.83576 2.36045 1.62244C2.32919 1.64635 2.29885 1.67025 2.26759 1.69416C2.54341 1.48177 2.8459 1.30617 3.16678 1.17009C3.13 1.18572 3.09322 1.20135 3.05737 1.21606C3.38192 1.07998 3.72393 0.987128 4.0724 0.939314C4.03195 0.94483 3.99057 0.950347 3.95012 0.955863C4.3142 0.907135 4.68473 0.907135 5.04883 0.955863C5.00838 0.950347 4.967 0.94483 4.92655 0.939314C5.27501 0.987124 5.61702 1.07998 5.94158 1.21606C5.9048 1.20043 5.86803 1.1848 5.83217 1.17009C6.15305 1.30524 6.45553 1.48177 6.73135 1.69416C6.70009 1.67025 6.66975 1.64635 6.63849 1.62244C6.91524 1.83666 7.16439 2.08491 7.37771 2.36166C7.3538 2.3304 7.3299 2.30006 7.30599 2.2688C7.51838 2.54462 7.69398 2.8471 7.83006 3.16798C7.81443 3.1312 7.7988 3.09443 7.78409 3.05857C7.92017 3.38313 8.01302 3.72514 8.06084 4.0736C8.05532 4.03315 8.0498 3.99178 8.04429 3.95132C8.06819 4.13429 8.08014 4.31726 8.08106 4.50113C8.08106 4.61882 8.13255 4.74294 8.2153 4.8266C8.29529 4.90659 8.42584 4.96635 8.54077 4.96083C8.65937 4.95532 8.78257 4.9167 8.86623 4.8266C8.94898 4.73649 9.00139 4.62616 9.00047 4.50113C8.99955 4.03959 8.93059 3.57068 8.78808 3.13121C8.64925 2.7046 8.45066 2.2927 8.19046 1.92677C8.05163 1.73185 7.89993 1.54337 7.7335 1.37052C7.56709 1.19858 7.38596 1.04688 7.19656 0.901611C6.83799 0.626698 6.43804 0.418916 6.01511 0.263538C5.58299 0.10448 5.12052 0.0217289 4.66173 0.00333638C4.19651 -0.0150528 3.72025 0.0428719 3.27157 0.16975C2.8422 0.292032 2.42294 0.479598 2.04966 0.725073C1.67821 0.969639 1.33711 1.26478 1.05393 1.60771C0.902222 1.7916 0.759712 1.98467 0.637437 2.18877C0.512397 2.39748 0.410339 2.61722 0.318393 2.84156C0.14279 3.26909 0.047162 3.7242 0.0122263 4.18482C-0.0236307 4.65004 0.0205011 5.12537 0.129912 5.57865C0.235645 6.01538 0.414004 6.44289 0.647542 6.82722C0.876473 7.20418 1.16334 7.55448 1.4934 7.84777C1.82715 8.14381 2.20134 8.3985 2.60865 8.58238C2.83023 8.68259 3.05641 8.77086 3.28993 8.83614C3.53174 8.90326 3.77721 8.94463 4.02638 8.97313C4.49254 9.02738 4.96694 8.99704 5.42573 8.90417C5.86888 8.81499 6.301 8.6495 6.69543 8.42884C7.08067 8.2137 7.44016 7.93605 7.74448 7.617C8.05157 7.29612 8.3182 6.92652 8.51587 6.52841C8.71814 6.12203 8.8671 5.68807 8.93604 5.23939C8.97374 4.9939 8.99948 4.7475 8.99948 4.49927C8.99948 4.38158 8.94799 4.25746 8.86525 4.1738C8.78526 4.09381 8.65471 4.03405 8.53978 4.03957C8.42118 4.04508 8.29797 4.0837 8.21431 4.1738C8.13249 4.26574 8.081 4.37607 8.081 4.50112L8.08106 4.50115Z" fill="#D11A2A"/>
</svg>
