<svg width="13" height="9" viewBox="0 0 11 7" fill="none" xmlns="http://www.w3.org/2000/svg">
<path d="M6.55582 1.29879V0.309237C6.55582 0.22718 6.52324 0.148544 6.46526 0.0905613C6.40728 0.0325789 6.32864 0 6.24658 0H0.309237C0.22718 0 0.148544 0.0325789 0.0905613 0.0905613C0.0325789 0.148544 0 0.227177 0 0.309237V1.29879C0 1.38085 0.0325789 1.45949 0.0905613 1.51747C0.148544 1.57545 0.227177 1.60803 0.309237 1.60803H6.24658C6.32864 1.60803 6.40728 1.57545 6.46526 1.51747C6.52324 1.45949 6.55582 1.38085 6.55582 1.29879ZM5.93735 0.989543H0.618615V0.618459H5.93735V0.989543Z" fill="#3B72ED"/>
<path d="M1.96875 2.78311V3.77267C1.96875 3.85473 2.00133 3.93336 2.05931 3.99135C2.11729 4.04933 2.19593 4.08191 2.27799 4.08191H8.21533C8.29739 4.08191 8.37603 4.04933 8.43401 3.99135C8.49199 3.93336 8.52457 3.85473 8.52457 3.77267V2.78311C8.52457 2.70106 8.49199 2.62242 8.43401 2.56444C8.37603 2.50646 8.29739 2.47388 8.21533 2.47388H2.27799C2.19593 2.47388 2.11729 2.50646 2.05931 2.56444C2.00133 2.62242 1.96875 2.70105 1.96875 2.78311ZM2.58722 3.09236H7.90596V3.46345H2.58722V3.09236Z" fill="#3B72ED"/>
<path d="M10.1841 4.94775H4.24674C4.16468 4.94775 4.08604 4.98033 4.02806 5.03832C3.97008 5.0963 3.9375 5.17493 3.9375 5.25699V6.24655C3.9375 6.32861 3.97008 6.40724 4.02806 6.46522C4.08604 6.52321 4.16468 6.55579 4.24674 6.55579H10.1841C10.2661 6.55579 10.3448 6.52321 10.4028 6.46522C10.4607 6.40724 10.4933 6.32861 10.4933 6.24655V5.25699C10.4933 5.17493 10.4607 5.0963 10.4028 5.03832C10.3448 4.98033 10.2661 4.94775 10.1841 4.94775ZM9.87483 5.93731H4.5561V5.56623H9.87483V5.93731Z" fill="#3B72ED"/>
</svg>
