<svg width="10" height="9" viewBox="0 0 10 9" fill="none" xmlns="http://www.w3.org/2000/svg">
<path d="M4.57333 0C2.05364 0 0 2.02089 0 4.50054C0 6.98033 2.05358 9 4.57333 9C6.38437 9 7.95607 7.96201 8.69521 6.4527C8.81754 6.20405 8.71171 5.90487 8.45897 5.78465C8.2063 5.66426 7.90228 5.76841 7.78011 6.01713C7.20598 7.18956 5.98965 7.99977 4.57333 7.99977C2.60279 7.99977 1.01724 6.43956 1.01724 4.50028C1.01724 2.56119 2.60277 1.00079 4.57333 1.00079C6.16209 1.00079 7.49874 2.0156 7.9576 3.42486L7.78491 3.30959C7.66802 3.23073 7.52307 3.20352 7.38491 3.23441C7.25927 3.26288 7.14928 3.33722 7.07722 3.44245C6.92086 3.67024 6.98075 3.97955 7.2112 4.13493L8.26921 4.84299L8.27227 4.846C8.32782 4.90251 8.39622 4.94537 8.47176 4.97099C8.47278 4.97132 8.47389 4.97166 8.47482 4.97199C8.47788 4.973 8.48078 4.97409 8.48384 4.97501C8.55938 5.00732 8.64181 5.02105 8.72398 5.01502C8.73819 5.01402 8.75248 5.01235 8.76669 5.01009C8.90373 4.98807 9.02565 4.91189 9.10407 4.79912L9.91292 3.63003C10.0693 3.40224 10.0094 3.09293 9.77893 2.93755C9.66324 2.85944 9.51997 2.8319 9.38293 2.86137C9.25745 2.88958 9.14746 2.9635 9.07523 3.0684L8.95809 3.23641C8.40097 1.36989 6.64723 0 4.57333 0Z" fill="#F29339"/>
</svg>
