<svg width="10" height="10" viewBox="0 0 8 8" fill="none" xmlns="http://www.w3.org/2000/svg">
<path d="M7.93262 3.26738C7.89896 3.08212 7.71369 2.95582 7.52842 2.98949C7.34316 3.02316 7.21686 3.20842 7.25053 3.39368C7.28419 3.58735 7.3095 3.78947 7.3095 3.99161C7.3095 5.81898 5.82741 7.30108 4.00003 7.30108C2.17266 7.30108 0.690556 5.8274 0.690556 4.00003C0.690556 2.17266 2.17265 0.690556 4.00003 0.690556C4.44635 0.690556 4.88426 0.774791 5.28845 0.951594C5.46532 1.02737 5.66738 0.943194 5.74316 0.766331C5.81893 0.589459 5.73476 0.387399 5.55789 0.311624C5.06107 0.109504 4.53898 0 4 0C1.79368 0 0 1.79368 0 4C0 6.20632 1.79368 8 4 8C6.20632 8 8 6.20632 8 4C8 3.74735 7.97474 3.50317 7.93262 3.26738H7.93262Z" fill="#3A974C"/>
<path d="M3.06572 2.99796C2.65307 2.40004 1.66781 2.9727 2.08886 3.57056C2.59415 4.29477 3.05725 5.05265 3.56254 5.77688C3.80672 6.12216 4.30361 6.15581 4.5394 5.77688C5.46575 4.27793 6.42572 2.82109 7.65519 1.54951C8.16048 1.02742 7.36042 0.218984 6.85521 0.749525C5.76892 1.87799 4.86784 3.1411 4.03415 4.45479C3.7142 3.96641 3.40257 3.47799 3.06576 2.99796H3.06572Z" fill="#3A974C"/>
</svg>
